<svg width="45" height="45" viewBox="0 0 45 45" fill="none" xmlns="http://www.w3.org/2000/svg">
<path d="M21.6989 38.9426C21.6989 38.9426 17.8921 35.8636 1.90341 34.3409V41.9546H17.1307C17.9872 40.1898 19.7397 39.0344 21.6989 38.9426Z" fill="#CEF0FF"/>
<path d="M23.2216 38.9426C23.2216 38.9426 27.0284 35.8636 43.0171 34.3409V41.9546H27.7898C26.9332 40.1898 25.1808 39.0344 23.2216 38.9426Z" fill="#CEF0FF"/>
<path d="M1.90341 38.1477H11.8011V39.6705H1.90341V38.1477Z" fill="#58B1CC"/>
<path d="M33.1193 38.1477H43.0171V39.6705H33.1193V38.1477Z" fill="#58B1CC"/>
<path d="M30.0739 38.1477H31.5966V39.6705H30.0739V38.1477Z" fill="#58B1CC"/>
<path d="M21.6989 29.0114C21.6989 29.0114 31.5966 22.9204 23.983 16.0682C16.3693 9.21589 15.0842 4.6477 16.3693 0.840881C16.3693 0.840881 6.76788 10.3959 15.608 18.3523C23.2216 25.2045 21.6989 29.0114 21.6989 29.0114Z" fill="#DCD0F7"/>
<path d="M27.7898 15.3068C27.7898 15.3068 21.9959 11.7877 26.267 8.45452C30.5382 5.12132 30.7947 2.69262 30.0739 0.840881C30.0739 0.840881 36.5562 6.10649 31.5966 9.97725C27.3254 13.3104 27.7898 15.3068 27.7898 15.3068Z" fill="#DCD0F7"/>
<path d="M22.4602 20.6364H23.983V22.1591H22.4602V20.6364Z" fill="#D9176C"/>
<path d="M20.1761 18.3523H21.6989V19.875H20.1761V18.3523Z" fill="#D9176C"/>
<path d="M40.733 19.875C39.4716 19.875 38.4489 18.8523 38.4489 17.5909C38.4489 17.1704 38.108 16.8295 37.6875 16.8295C37.2671 16.8295 36.9262 17.1704 36.9262 17.5909C36.9262 18.8523 35.9035 19.875 34.6421 19.875C34.2216 19.875 33.8807 20.2159 33.8807 20.6363C33.8807 21.0568 34.2216 21.3977 34.6421 21.3977C35.9035 21.3977 36.9262 22.4204 36.9262 23.6818C36.9262 24.1023 37.2671 24.4432 37.6875 24.4432C38.108 24.4432 38.4489 24.1023 38.4489 23.6818C38.4489 22.4204 39.4716 21.3977 40.733 21.3977C41.1534 21.3977 41.4944 21.0568 41.4944 20.6363C41.4944 20.2159 41.1534 19.875 40.733 19.875ZM37.6875 21.4211C37.4656 21.1226 37.2013 20.8583 36.9027 20.6363C37.2013 20.4144 37.4656 20.1501 37.6875 19.8516C37.9095 20.1501 38.1738 20.4144 38.4723 20.6363C38.1738 20.8583 37.9095 21.1226 37.6875 21.4211Z" fill="#FFA451"/>
<path d="M15.608 27.4886C14.3466 27.4886 13.3239 26.4659 13.3239 25.2045C13.3239 24.7841 12.983 24.4432 12.5625 24.4432C12.142 24.4432 11.8011 24.7841 11.8011 25.2045C11.8011 26.4659 10.7784 27.4886 9.51704 27.4886C9.09658 27.4886 8.75568 27.8295 8.75568 28.25C8.75568 28.6705 9.09658 29.0114 9.51704 29.0114C10.7784 29.0114 11.8011 30.0341 11.8011 31.2955C11.8011 31.7159 12.142 32.0568 12.5625 32.0568C12.983 32.0568 13.3239 31.7159 13.3239 31.2955C13.3239 30.0341 14.3466 29.0114 15.608 29.0114C16.0284 29.0114 16.3693 28.6705 16.3693 28.25C16.3693 27.8295 16.0284 27.4886 15.608 27.4886ZM12.5625 29.0348C12.3406 28.7363 12.0762 28.4719 11.7777 28.25C12.0762 28.0281 12.3406 27.7637 12.5625 27.4652C12.7844 27.7637 13.0488 28.0281 13.3473 28.25C13.0488 28.4719 12.7844 28.7363 12.5625 29.0348Z" fill="#FFA451"/>
<path d="M25.5057 3.12499C24.2443 3.12499 23.2216 2.10227 23.2216 0.840893C23.2216 0.420433 22.8807 0.0795288 22.4602 0.0795288C22.0398 0.0795288 21.6989 0.420433 21.6989 0.840893C21.6989 2.10227 20.6762 3.12499 19.4148 3.12499C18.9943 3.12499 18.6534 3.46589 18.6534 3.88635C18.6534 4.30681 18.9943 4.64771 19.4148 4.64771C20.6762 4.64771 21.6989 5.67043 21.6989 6.93181C21.6989 7.35227 22.0398 7.69317 22.4602 7.69317C22.8807 7.69317 23.2216 7.35227 23.2216 6.93181C23.2216 5.67043 24.2443 4.64771 25.5057 4.64771C25.9262 4.64771 26.2671 4.30681 26.2671 3.88635C26.2671 3.46589 25.9262 3.12499 25.5057 3.12499ZM22.4602 4.67114C22.2383 4.37261 21.974 4.10829 21.6754 3.88635C21.974 3.66441 22.2383 3.40009 22.4602 3.10157C22.6822 3.40009 22.9465 3.66441 23.245 3.88635C22.9465 4.10829 22.6822 4.37261 22.4602 4.67114Z" fill="#FFA451"/>
<path d="M30.8353 14.5454H32.358V16.0682H30.8353V14.5454Z" fill="#D9176C"/>
<path d="M30.8353 24.4432H32.358V25.9659H30.8353V24.4432Z" fill="#D9176C"/>
<path d="M11.0398 20.6364H12.5625V22.1591H11.0398V20.6364Z" fill="#D9176C"/>
<path d="M18.6534 32.0568H20.1761V33.5795H18.6534V32.0568Z" fill="#D9176C"/>
<path d="M4.1875 28.25H5.71023V29.7727H4.1875V28.25Z" fill="#D9176C"/>
<path d="M29.3125 30.5341C29.3125 31.375 28.6307 32.0568 27.7898 32.0568C26.9489 32.0568 26.2671 31.375 26.2671 30.5341C26.2671 29.6932 26.9489 29.0114 27.7898 29.0114C28.6307 29.0114 29.3125 29.6932 29.3125 30.5341Z" fill="#87CEE9"/>
<path d="M8.75566 17.5909C8.75566 18.4318 8.07385 19.1136 7.23293 19.1136C6.39201 19.1136 5.71021 18.4318 5.71021 17.5909C5.71021 16.75 6.39201 16.0682 7.23293 16.0682C8.07385 16.0682 8.75566 16.75 8.75566 17.5909Z" fill="#87CEE9"/>
<path d="M39.9716 9.97726C39.9716 10.8182 39.2898 11.5 38.4489 11.5C37.608 11.5 36.9261 10.8182 36.9261 9.97726C36.9261 9.13634 37.608 8.45453 38.4489 8.45453C39.2898 8.45453 39.9716 9.13634 39.9716 9.97726Z" fill="#87CEE9"/>
<path d="M25.5057 45C25.5057 43.3182 24.1421 41.9545 22.4602 41.9545C20.7784 41.9545 19.4148 43.3182 19.4148 45H0.380676V41.9545H17.1307C17.8921 40.4318 19.4148 38.9091 22.4602 38.9091C25.5057 38.9091 27.0284 40.4318 27.7898 41.9545H44.5398V45H25.5057Z" fill="#8D28AD"/>
<path d="M0.380676 41.9546H6.47159V45H0.380676V41.9546Z" fill="#5C067C"/>
<path d="M38.4489 41.9546H44.5398V45H38.4489V41.9546Z" fill="#5C067C"/>
</svg>
